# xmcd
# 
# Track frame offsets:
#     150
#     19538
#     36812
#     56157
# 
# Disc length: 979
# 
# Revision: 9
# Processed by: cddbd v1.5.2PL0 Copyright (c) Steve Scherf et al.
# Submitted via: BonkEnc v1.0.8
# 
DISCID=2a03d104
DTITLE=L'Arc~en~Ciel - MY HEART DRAWS A DREAM
DYEAR=2007
DGENRE=JPop
TTITLE0=MY HEART DRAWS A DREAM
TTITLE1=Feeling Fine 2007
TTITLE2=MY HEART DRAWS A DREAM(hydeless version)
TTITLE3=Feeling Fine(TETSU P'UNKless version)
EXTD=
EXTT0=
EXTT1=
EXTT2=
EXTT3=
PLAYORDER=
